<svg width="223" height="223" viewBox="0 0 223 223" fill="none" xmlns="http://www.w3.org/2000/svg">
<path fill-rule="evenodd" clip-rule="evenodd" d="M41.1159 132.996C29.4813 134.635 32.2915 115.158 28.2579 105.593C26.339 101.043 21.2513 99.5228 18.4155 96.8384C14.9406 93.5498 13.9668 89.4313 15.5009 87.1341C17.3619 73.8734 34.9452 57.2059 59.8156 44.6921C69.7616 39.5779 78.6863 39.4486 86.0527 46.929C103.286 37.3433 120.45 39.2581 137.575 47.3765C142.207 40.4118 149.439 39.0169 159.073 42.7528C175.562 50.3411 190.609 60.2964 202.108 76.0687C208.949 84.6665 211.219 92.3879 202.684 98.0401C195.135 103.63 192.473 109.621 192.495 115.835C190.698 130.756 186.234 135.864 179.469 132.504C172.006 129.583 167.533 121.434 165.863 108.388C165.805 104.418 164.475 95.4508 166.732 92.1378C170.22 87.0212 172.619 73.0433 169.182 66.5105C164.847 61.3751 161.711 59.0963 157.84 60.5759C163.138 66.9239 162.93 79.2843 156.508 98.8722C154.476 111.369 156.322 123.718 162.702 135.89C166.75 158.599 159.852 171.31 143.349 171.939C126.581 169.668 116.991 161.383 116.593 145.404C120.554 143.313 126.295 143.689 126.992 141.29C128.665 135.536 129 130.751 125.97 129.258C118.461 125.553 106.862 124.847 99.8489 127.66C94.3473 129.868 92.8114 137.373 98.5654 143.802C99.6454 145.01 103.385 144.84 105.437 145.687C106.227 150.629 105.309 156.08 102.089 161.097C97.2552 166.92 91.5123 170.593 84.4084 171.049C74.6919 171.47 66.6281 167.719 61.0762 158.129C55.1281 149.97 58.3566 135.658 65.5119 119.197C67.2774 110.644 67.9526 101.663 65.0223 91.2769C63.3424 83.0952 60.5004 78.4788 63.1025 66.2314C63.5599 64.0783 65.1299 62.6237 65.0126 61.2C64.8057 58.6857 62.1097 57.4497 58.5409 61.0717C52.098 65.882 50.5723 72.3745 52.2912 80.5569C56.4035 88.5969 57.2611 101.32 55.2317 117.754C51.0368 126.509 46.3931 132.033 41.1159 132.996Z" fill="white" stroke="#FFFEFE" stroke-miterlimit="1.5" stroke-linecap="round" stroke-linejoin="round"/>
<path d="M90.3135 104.44C94.4023 104.44 97.7169 101.289 97.7169 97.4015C97.7169 93.5144 94.4023 90.3633 90.3135 90.3633C86.2248 90.3633 82.9102 93.5144 82.9102 97.4015C82.9102 101.289 86.2248 104.44 90.3135 104.44Z" fill="#536CBE"/>
<path d="M131.099 104.44C135.187 104.44 138.502 101.289 138.502 97.4015C138.502 93.5144 135.187 90.3633 131.099 90.3633C127.01 90.3633 123.695 93.5144 123.695 97.4015C123.695 101.289 127.01 104.44 131.099 104.44Z" fill="#536CBE"/>
<path fill-rule="evenodd" clip-rule="evenodd" d="M89.6758 177.125C98.5236 174.534 105.763 169.375 111.492 161.915C111.627 161.74 112.269 161.937 112.4 161.76C117.822 169.331 124.116 174.204 131.937 176.499C120.265 191.895 102.799 188.932 89.6758 177.125Z" fill="white"/>
<path fill-rule="evenodd" clip-rule="evenodd" d="M157.71 60.6543C156.991 67.0164 155.338 74.702 152.292 80.7614C139.669 97.8861 137.434 113.98 146.691 128.938C152.649 140.651 155.11 151.325 148.149 159.195C144.668 163.181 139.775 166.611 134.09 169.727C139.452 173.015 145.45 173.469 152.266 170.251C159.58 167.62 167.952 156.017 165.175 144.31C163.054 135.378 160.43 125.237 157.008 117.514C155.178 110.687 157.761 97.4036 161.516 78.0725C162.019 71.2421 161.231 64.1009 157.71 60.6543Z" fill="white"/>
<path fill-rule="evenodd" clip-rule="evenodd" d="M173.018 50.1855C181.693 55.4427 190.304 62.0084 197.731 70.5522C205.838 79.8776 210.965 89.6417 203.777 95.3404C197.997 99.3438 194.002 103.805 192.668 108.814L189.547 123.969C189.151 126.542 187.93 129.975 184.94 131.491C182.806 132.668 182.023 131.258 180.529 131.117C173.974 124.093 170.681 113.01 171.498 99.346C177.767 81.1657 181.005 68.3792 173.018 50.1855Z" fill="white" stroke="#FEFEFE" stroke-miterlimit="1.5" stroke-linecap="round" stroke-linejoin="round"/>
</svg>
